<?xml version="1.0" encoding="UTF-8"?>
<svg id="Capa_2" data-name="Capa 2" xmlns="http://www.w3.org/2000/svg" viewBox="0 0 116.07 118.44">
  <defs>
    <style>
      .cls-1 {
        fill: #f7c105;
      }

      .cls-2 {
        fill: #a3c7ff;
      }
    </style>
  </defs>
  <g id="CC_Portobello" data-name="CC Portobello">
    <g>
      <path class="cls-1" d="M83.23,92.09c-22.74,0-41.17-18.43-41.17-41.17S60.5,9.75,83.23,9.75c3.63,0,7.13.52,10.48,1.4C83.99,4.16,72.11,0,59.22,0,26.51,0,0,26.51,0,59.22s26.51,59.22,59.22,59.22c26.99,0,49.72-18.07,56.85-42.77-7.51,9.95-19.41,16.42-32.84,16.42Z"/>
      <polygon class="cls-2" points="94.31 24.69 101.58 37.57 116.07 40.51 106.07 51.4 107.76 66.09 94.31 59.95 80.86 66.09 82.54 51.4 72.54 40.51 87.04 37.57 94.31 24.69"/>
    </g>
  </g>
</svg>