<?xml version="1.0" encoding="UTF-8"?>
<svg id="Capa_2" data-name="Capa 2" xmlns="http://www.w3.org/2000/svg" viewBox="0 0 129.97 127.24">
  <defs>
    <style>
      .cls-1 {
        fill: #a3c7ff;
      }

      .cls-2 {
        fill: #4b88ff;
      }
    </style>
  </defs>
  <g id="CC_Portobello" data-name="CC Portobello">
    <g>
      <path class="cls-2" d="M100.73,37.01s-.03,0-.04,0c0-.25.04-.5.04-.75C100.73,16.23,84.5,0,64.48,0S28.22,16.23,28.22,36.25c0,.02,0,.05,0,.07-15.71.73-28.23,13.66-28.23,29.54s13.26,29.61,29.61,29.61h71.12c16.15,0,29.24-13.09,29.24-29.24s-13.09-29.24-29.24-29.24Z"/>
      <g>
        <path class="cls-1" d="M22.31,79.24c-1.39,0-2.51-1.12-2.51-2.51v-16.72c0-1.39,1.12-2.51,2.51-2.51s2.51,1.12,2.51,2.51v16.72c0,1.39-1.12,2.51-2.51,2.51Z"/>
        <path class="cls-1" d="M22.31,127.24c-1.39,0-2.51-1.12-2.51-2.51v-34.32c0-1.39,1.12-2.51,2.51-2.51s2.51,1.12,2.51,2.51v34.32c0,1.39-1.12,2.51-2.51,2.51Z"/>
        <path class="cls-1" d="M43.65,69.74c-1.39,0-2.51-1.12-2.51-2.51v-24.37c0-1.39,1.12-2.51,2.51-2.51s2.51,1.12,2.51,2.51v24.37c0,1.39-1.12,2.51-2.51,2.51Z"/>
        <path class="cls-1" d="M43.65,97.74c-1.39,0-2.51-1.12-2.51-2.51v-15.88c0-1.39,1.12-2.51,2.51-2.51s2.51,1.12,2.51,2.51v15.88c0,1.39-1.12,2.51-2.51,2.51Z"/>
        <path class="cls-1" d="M43.65,127.24c-1.39,0-2.51-1.12-2.51-2.51v-12.7c0-1.39,1.12-2.51,2.51-2.51s2.51,1.12,2.51,2.51v12.7c0,1.39-1.12,2.51-2.51,2.51Z"/>
        <path class="cls-1" d="M64.98,127.24c-1.39,0-2.51-1.12-2.51-2.51v-34.32c0-1.39,1.12-2.51,2.51-2.51s2.51,1.12,2.51,2.51v34.32c0,1.39-1.12,2.51-2.51,2.51Z"/>
        <path class="cls-1" d="M86.32,127.24c-1.39,0-2.51-1.12-2.51-2.51v-12.7c0-1.39,1.12-2.51,2.51-2.51s2.51,1.12,2.51,2.51v12.7c0,1.39-1.12,2.51-2.51,2.51Z"/>
        <path class="cls-1" d="M107.66,127.24c-1.39,0-2.51-1.12-2.51-2.51v-26.27c0-1.39,1.12-2.51,2.51-2.51s2.51,1.12,2.51,2.51v26.27c0,1.39-1.12,2.51-2.51,2.51Z"/>
        <path class="cls-1" d="M107.66,84.01c-1.39,0-2.51-1.12-2.51-2.51v-11.9c0-1.39,1.12-2.51,2.51-2.51s2.51,1.12,2.51,2.51v11.9c0,1.39-1.12,2.51-2.51,2.51Z"/>
        <path class="cls-1" d="M86.32,104.08c-1.39,0-2.51-1.12-2.51-2.51v-51.11c0-1.39,1.12-2.51,2.51-2.51s2.51,1.12,2.51,2.51v51.11c0,1.39-1.12,2.51-2.51,2.51Z"/>
        <path class="cls-1" d="M64.98,78.41c-1.39,0-2.51-1.12-2.51-2.51v-15.06c0-1.39,1.12-2.51,2.51-2.51s2.51,1.12,2.51,2.51v15.06c0,1.39-1.12,2.51-2.51,2.51Z"/>
      </g>
    </g>
  </g>
</svg>