<?xml version="1.0" encoding="UTF-8"?>
<svg id="Capa_2" data-name="Capa 2" xmlns="http://www.w3.org/2000/svg" viewBox="0 0 129.97 128.29">
  <defs>
    <style>
      .cls-1 {
        fill: #a3c7ff;
      }

      .cls-2 {
        fill: #4b88ff;
      }
    </style>
  </defs>
  <g id="CC_Portobello" data-name="CC Portobello">
    <g>
      <path class="cls-2" d="M100.73,37.01s-.03,0-.04,0c0-.25.04-.5.04-.75C100.73,16.23,84.5,0,64.48,0S28.22,16.23,28.22,36.25c0,.02,0,.05,0,.07-15.71.73-28.23,13.66-28.23,29.54s13.26,29.61,29.61,29.61h71.12c16.15,0,29.24-13.09,29.24-29.24s-13.09-29.24-29.24-29.24Z"/>
      <path class="cls-1" d="M13.48,128.29c-.68,0-1.37-.18-1.99-.57-1.76-1.1-2.3-3.43-1.2-5.19l29.27-46.83c1.1-1.77,3.43-2.3,5.19-1.2,1.76,1.1,2.3,3.43,1.2,5.19l-29.27,46.83c-.71,1.14-1.94,1.77-3.2,1.77Z"/>
      <path class="cls-1" d="M74.15,128.29c-.68,0-1.37-.19-1.99-.57-1.76-1.1-2.3-3.43-1.2-5.19l20.74-33.19c1.1-1.77,3.43-2.3,5.19-1.2,1.76,1.1,2.3,3.43,1.2,5.19l-20.74,33.19c-.71,1.14-1.94,1.77-3.2,1.77Z"/>
      <path class="cls-1" d="M42.75,128.29c-.67,0-1.36-.18-1.98-.56-1.77-1.09-2.32-3.41-1.23-5.18l40.98-66.38c1.09-1.77,3.41-2.32,5.18-1.23,1.77,1.09,2.32,3.41,1.23,5.18l-40.98,66.38c-.71,1.15-1.95,1.79-3.21,1.79Z"/>
    </g>
  </g>
</svg>