<?xml version="1.0" encoding="UTF-8"?>
<svg id="Capa_2" data-name="Capa 2" xmlns="http://www.w3.org/2000/svg" viewBox="0 0 163.1 127.59">
  <defs>
    <style>
      .cls-1 {
        fill: #f1c531;
      }

      .cls-2 {
        fill: #4b88ff;
      }
    </style>
  </defs>
  <g id="CC_Portobello" data-name="CC Portobello">
    <g>
      <path class="cls-1" d="M100.73,37.01s-.03,0-.04,0c0-.25.04-.5.04-.75C100.73,16.23,84.5,0,64.48,0S28.22,16.23,28.22,36.25c0,.02,0,.05,0,.07-15.71.73-28.23,13.66-28.23,29.54s13.26,29.61,29.61,29.61h71.12c16.15,0,29.24-13.09,29.24-29.24s-13.09-29.24-29.24-29.24Z"/>
      <path class="cls-2" d="M133.86,69.11s-.03,0-.04,0c0-.25.04-.5.04-.75,0-20.02-16.23-36.25-36.25-36.25s-36.25,16.23-36.25,36.25c0,.02,0,.05,0,.07-15.71.73-28.23,13.66-28.23,29.54s13.26,29.61,29.61,29.61h71.12c16.15,0,29.24-13.09,29.24-29.24s-13.09-29.24-29.24-29.24Z"/>
    </g>
  </g>
</svg>