<?xml version="1.0" encoding="UTF-8"?>
<svg id="Capa_2" data-name="Capa 2" xmlns="http://www.w3.org/2000/svg" viewBox="0 0 159.57 133.68">
  <defs>
    <style>
      .cls-1 {
        fill: #f7c105;
      }

      .cls-2 {
        fill: #4b88ff;
      }
    </style>
  </defs>
  <g id="CC_Portobello" data-name="CC Portobello">
    <g>
      <path class="cls-1" d="M135.73,66.85c-16.51,0-29.89-13.38-29.89-29.89s13.38-29.89,29.89-29.89c2.63,0,5.18.38,7.61,1.02-7.06-5.07-15.69-8.09-25.04-8.09-23.74,0-42.99,19.25-42.99,42.99s19.25,42.99,42.99,42.99c19.59,0,36.09-13.12,41.27-31.05-5.46,7.23-14.09,11.92-23.84,11.92Z"/>
      <path class="cls-2" d="M100.73,75.21s-.03,0-.04,0c0-.25.04-.5.04-.75,0-20.02-16.23-36.25-36.25-36.25s-36.25,16.23-36.25,36.25c0,.02,0,.05,0,.07-15.71.73-28.23,13.66-28.23,29.54s13.26,29.61,29.61,29.61h71.12c16.15,0,29.24-13.09,29.24-29.24s-13.09-29.24-29.24-29.24Z"/>
    </g>
  </g>
</svg>