<?xml version="1.0" encoding="UTF-8"?>
<svg id="Capa_2" data-name="Capa 2" xmlns="http://www.w3.org/2000/svg" viewBox="0 0 174.78 132.01">
  <defs>
    <style>
      .cls-1 {
        fill: #f7c105;
      }

      .cls-2 {
        fill: #4b88ff;
      }
    </style>
  </defs>
  <g id="CC_Portobello" data-name="CC Portobello">
    <g>
      <circle class="cls-1" cx="62.33" cy="61.91" r="29.89" transform="translate(-25.27 68.65) rotate(-49.21)"/>
      <path class="cls-1" d="M62.33,23.92c-2.08,0-3.77-1.69-3.77-3.77V3.77c0-2.08,1.69-3.77,3.77-3.77s3.77,1.69,3.77,3.77v16.39c0,2.08-1.69,3.77-3.77,3.77Z"/>
      <path class="cls-1" d="M20.16,66.1H3.77c-2.08,0-3.77-1.69-3.77-3.77s1.69-3.77,3.77-3.77h16.39c2.08,0,3.77,1.69,3.77,3.77s-1.69,3.77-3.77,3.77Z"/>
      <path class="cls-1" d="M32.51,36.28c-.96,0-1.93-.37-2.66-1.1l-11.59-11.59c-1.47-1.47-1.47-3.86,0-5.33,1.47-1.47,3.86-1.47,5.33,0l11.59,11.59c1.47,1.47,1.47,3.86,0,5.33-.74.74-1.7,1.1-2.66,1.1Z"/>
      <path class="cls-1" d="M20.92,107.51c-.96,0-1.93-.37-2.66-1.1-1.47-1.47-1.47-3.86,0-5.33l11.59-11.59c1.47-1.47,3.86-1.47,5.33,0,1.47,1.47,1.47,3.86,0,5.33l-11.59,11.59c-.74.74-1.7,1.1-2.66,1.1Z"/>
      <path class="cls-1" d="M92.15,36.28c-.96,0-1.93-.37-2.66-1.1-1.47-1.47-1.47-3.86,0-5.33l11.59-11.59c1.47-1.47,3.86-1.47,5.33,0,1.47,1.47,1.47,3.86,0,5.33l-11.59,11.59c-.73.74-1.7,1.1-2.66,1.1Z"/>
      <path class="cls-2" d="M145.54,73.54s-.03,0-.04,0c0-.25.04-.5.04-.75,0-20.02-16.23-36.25-36.25-36.25s-36.25,16.23-36.25,36.25c0,.02,0,.05,0,.07-15.71.73-28.23,13.66-28.23,29.54s13.26,29.61,29.61,29.61h71.12c16.15,0,29.24-13.09,29.24-29.24s-13.09-29.24-29.24-29.24Z"/>
    </g>
  </g>
</svg>