<?xml version="1.0" encoding="UTF-8"?>
<svg id="Capa_2" data-name="Capa 2" xmlns="http://www.w3.org/2000/svg" viewBox="0 0 124.66 124.66">
  <defs>
    <style>
      .cls-1 {
        fill: #f7c105;
      }
    </style>
  </defs>
  <g id="CC_Portobello" data-name="CC Portobello">
    <g>
      <circle class="cls-1" cx="62.33" cy="61.91" r="29.89" transform="translate(-12.39 108.12) rotate(-76.54)"/>
      <path class="cls-1" d="M62.33,23.92c-2.08,0-3.77-1.69-3.77-3.77V3.77c0-2.08,1.69-3.77,3.77-3.77s3.77,1.69,3.77,3.77v16.39c0,2.08-1.69,3.77-3.77,3.77Z"/>
      <path class="cls-1" d="M62.33,124.66c-2.08,0-3.77-1.69-3.77-3.77v-16.39c0-2.08,1.69-3.77,3.77-3.77s3.77,1.69,3.77,3.77v16.39c0,2.08-1.69,3.77-3.77,3.77Z"/>
      <path class="cls-1" d="M120.89,66.1h-16.39c-2.08,0-3.77-1.69-3.77-3.77s1.69-3.77,3.77-3.77h16.39c2.08,0,3.77,1.69,3.77,3.77s-1.69,3.77-3.77,3.77Z"/>
      <path class="cls-1" d="M3.77,66.1h16.39c2.08,0,3.77-1.69,3.77-3.77s-1.69-3.77-3.77-3.77H3.77c-2.08,0-3.77,1.69-3.77,3.77s1.69,3.77,3.77,3.77Z"/>
      <path class="cls-1" d="M32.51,36.28c-.96,0-1.93-.37-2.66-1.1l-11.59-11.59c-1.47-1.47-1.47-3.86,0-5.33,1.47-1.47,3.86-1.47,5.33,0l11.59,11.59c1.47,1.47,1.47,3.86,0,5.33-.74.74-1.7,1.1-2.66,1.1Z"/>
      <path class="cls-1" d="M103.74,107.51c-.96,0-1.93-.37-2.66-1.1l-11.59-11.59c-1.47-1.47-1.47-3.86,0-5.33,1.47-1.47,3.86-1.47,5.33,0l11.59,11.59c1.47,1.47,1.47,3.86,0,5.33-.74.74-1.7,1.1-2.66,1.1Z"/>
      <path class="cls-1" d="M20.92,107.51c-.96,0-1.93-.37-2.66-1.1-1.47-1.47-1.47-3.86,0-5.33l11.59-11.59c1.47-1.47,3.86-1.47,5.33,0,1.47,1.47,1.47,3.86,0,5.33l-11.59,11.59c-.74.74-1.7,1.1-2.66,1.1Z"/>
      <path class="cls-1" d="M92.15,36.28c-.96,0-1.93-.37-2.66-1.1-1.47-1.47-1.47-3.86,0-5.33l11.59-11.59c1.47-1.47,3.86-1.47,5.33,0,1.47,1.47,1.47,3.86,0,5.33l-11.59,11.59c-.73.74-1.7,1.1-2.66,1.1Z"/>
    </g>
  </g>
</svg>