<?xml version="1.0" encoding="UTF-8"?>
<svg id="Capa_2" data-name="Capa 2" xmlns="http://www.w3.org/2000/svg" viewBox="0 0 129.97 142.94">
  <defs>
    <style>
      .cls-1 {
        fill: #f7c105;
      }

      .cls-2 {
        fill: #4b88ff;
      }
    </style>
  </defs>
  <g id="CC_Portobello" data-name="CC Portobello">
    <g>
      <path class="cls-2" d="M100.73,37.01s-.03,0-.04,0c0-.25.04-.5.04-.75C100.73,16.23,84.5,0,64.48,0S28.22,16.23,28.22,36.25c0,.02,0,.05,0,.07-15.71.73-28.23,13.66-28.23,29.54s13.26,29.61,29.61,29.61h71.12c16.15,0,29.24-13.09,29.24-29.24s-13.09-29.24-29.24-29.24Z"/>
      <polygon class="cls-1" points="95.94 86.61 59.91 86.61 78.18 54.13 59.91 54.13 34.03 100.75 61.94 100.75 50.78 142.94 95.94 86.61"/>
    </g>
  </g>
</svg>