<?xml version="1.0" encoding="UTF-8"?>
<svg id="Capa_2" data-name="Capa 2" xmlns="http://www.w3.org/2000/svg" viewBox="0 0 194.71 125.2">
  <defs>
    <style>
      .cls-1 {
        fill: #a3c7ff;
      }

      .cls-2 {
        fill: #4b88ff;
      }
    </style>
  </defs>
  <g id="CC_Portobello" data-name="CC Portobello">
    <g>
      <path class="cls-2" d="M100.73,37.01s-.03,0-.04,0c0-.25.04-.5.04-.75C100.73,16.23,84.5,0,64.48,0S28.22,16.23,28.22,36.25c0,.02,0,.05,0,.07-15.71.73-28.23,13.66-28.23,29.54s13.26,29.61,29.61,29.61h71.12c16.15,0,29.24-13.09,29.24-29.24s-13.09-29.24-29.24-29.24Z"/>
      <path class="cls-1" d="M177.08,65.04h-58.55c-2.77,0-5.02-2.25-5.02-5.02s2.25-5.02,5.02-5.02h58.55c4.19,0,7.59-3.41,7.59-7.59s-3.41-7.59-7.59-7.59h-7.44c-2.77,0-5.02-2.25-5.02-5.02s2.25-5.02,5.02-5.02h7.44c9.73,0,17.64,7.91,17.64,17.64s-7.91,17.64-17.64,17.64Z"/>
      <path class="cls-1" d="M157.99,125.2c-12.4,0-22.49-10.09-22.49-22.49,0-8.48,6.9-15.37,15.37-15.37s15.37,6.9,15.37,15.37v2.59c0,2.77-2.25,5.02-5.02,5.02s-5.02-2.25-5.02-5.02v-2.59c0-2.94-2.39-5.33-5.33-5.33s-5.33,2.39-5.33,5.33c0,6.86,5.58,12.44,12.45,12.44s12.44-5.58,12.44-12.44v-5.14c0-9.38-7.63-17.01-17.01-17.01h-78.89c-2.77,0-5.02-2.25-5.02-5.02s2.25-5.02,5.02-5.02h78.89c14.92,0,27.06,12.14,27.06,27.06v5.14c0,12.4-10.09,22.49-22.49,22.49Z"/>
    </g>
  </g>
</svg>